:SAMPLES-PER-SECOND 30
:FULLY-SPECIFIED
:DEGREES
49
root  -5.54626 39.0148 10.8712 -43.1626 -80.0415 46.4722
RightUpLeg  -26.7637 -2.4978 -12.7631
RightLeg  56.4504 2.48187 3.61155
RightFoot  -4.2195 -0.552842 8.40987
RightToes  4.01633e-009 0 -3.6325e-017
Spine  -2.9491 -2.23858 -9.80877
Spine1  14.4112 -2.19988 -0.60639
HEad  9.24979 -3.36734 -1.06516
LeftShoulder1  -0.12531 3.8584 -29.121
LeftArm  -7.32523 0.945747 -46.4097
LeftForeArm  23.9929 -12.3578 -5.87702
LeftHand  -0.0235382 3.35684 0.349401
RightShoulder  -0.761009 -5.77438 26.8796
RightArm  13.391 -5.04391 51.7523
RightForeArm  11.0891 21.5989 4.23906
RightHand  -0.317357 0.762607 -6.11446
LeftUpLeg  -12.3299 4.0385 -7.22363
LeftLeg  16.1663 -2.28636 -3.22255
LeftFoot  -12.245 0.0381046 -4.52408
LeftToes  -1.95724e-009 9.62483e-011 3.51777e-011
50
root  -6.416 39.0622 11.0684 -45.0654 -81.2138 48.1271
RightUpLeg  -28.2799 -2.71761 -10.1076
RightLeg  49.4959 2.96701 3.36161
RightFoot  -4.81006 -0.511402 8.3725
RightToes  4.01633e-009 0 -3.6325e-017
Spine  -2.73431 -1.98161 -9.86157
Spine1  14.2473 -2.03512 0.0840677
HEad  8.95092 -2.62145 -0.735396
LeftShoulder1  -0.0429799 3.62764 -28.6528
LeftArm  -5.62208 1.30967 -47.1557
LeftForeArm  22.4661 -14.2933 -5.7124
LeftHand  -0.0252637 3.75438 0.374802
RightShoulder  -0.761064 -5.7529 27.1956
RightArm  14.0979 -4.01649 51.7124
RightForeArm  10.1676 20.1584 4.32739
RightHand  -0.336106 1.57538 -5.74862
LeftUpLeg  -10.4749 4.93892 -6.42035
LeftLeg  16.0711 -2.24576 -3.48226
LeftFoot  -13.4105 0.0172532 -3.5403
LeftToes  -1.95724e-009 9.62483e-011 3.51777e-011
51
root  -7.32959 39.0495 11.2355 -49.4191 -82.2091 52.4572
RightUpLeg  -29.0245 -2.96192 -7.64378
RightLeg  40.4386 3.87311 3.26676
RightFoot  -5.13653 -0.496819 8.50635
RightToes  4.01633e-009 0 -3.6325e-017
Spine  -3.20464 -1.68426 -10.2147
Spine1  14.5796 -1.80762 1.05103
HEad  8.93612 -3.54834 -0.242893
LeftShoulder1  -0.0852506 3.74795 -28.8398
LeftArm  -4.1461 0.8772 -47.5321
LeftForeArm  21.9517 -15.3586 -5.59312
LeftHand  -0.0249623 2.56563 0.462351
RightShoulder  -0.660517 -5.48772 26.6056
RightArm  13.7173 -3.31896 52.2386
RightForeArm  9.64889 18.4972 4.52677
RightHand  -0.355295 1.55983 -6.09639
LeftUpLeg  -8.90355 6.043 -5.83011
LeftLeg  16.2577 -2.32941 -3.98363
LeftFoot  -14.6965 0.0207296 -2.28162
LeftToes  -1.95724e-009 9.62483e-011 3.51777e-011
52
root  -8.26021 38.9723 11.354 -60.0582 -82.8962 63.4945
RightUpLeg  -29.5011 -2.60216 -5.76522
RightLeg  30.009 4.05347 2.31484
RightFoot  -5.12898 -0.524995 9.01163
RightToes  4.01633e-009 0 -3.6325e-017
Spine  -4.04899 -1.04029 -11.5692
Spine1  14.7757 -1.32855 2.80734
HEad  9.36107 -4.38911 -0.122712
LeftShoulder1  -0.0495213 3.64327 -29.3436
LeftArm  -2.58879 0.495066 -47.6349
LeftForeArm  21.3675 -16.348 -5.48129
LeftHand  -0.0269346 2.34148 0.556529
RightShoulder  -0.644442 -5.45596 26.3077
RightArm  13.2899 -2.61402 51.9812
RightForeArm  10.3812 17.0984 4.74385
RightHand  -0.297857 0.462368 -5.99369
LeftUpLeg  -7.73143 6.78906 -5.78979
LeftLeg  16.4414 -1.68241 -4.3536
LeftFoot  -16.0351 0.0311131 -1.58659
LeftToes  -1.95724e-009 9.62483e-011 3.51777e-011
53
root  -9.20913 38.8426 11.4496 -73.2097 -82.7502 77.6317
RightUpLeg  -30.0479 -2.42798 -4.45904
RightLeg  19.2421 2.61661 0.847133
RightFoot  -4.70884 -0.547902 8.88015
RightToes  4.01633e-009 0 -3.6325e-017
Spine  -5.60653 -0.716612 -12.6672
Spine1  15.0799 -0.688428 3.25577
HEad  9.82659 -4.36437 0.286014
LeftShoulder1  -0.0940745 3.76957 -29.2569
LeftArm  -2.52602 -0.149011 -47.7503
LeftForeArm  21.7414 -16.185 -5.54515
LeftHand  -0.0266405 2.38463 0.549876
RightShoulder  -0.664676 -5.49144 26.7508
RightArm  13.8411 -1.67785 51.4898
RightForeArm  10.62 15.5616 5.19717
RightHand  -0.271222 0.566303 -5.3084
LeftUpLeg  -7.0556 6.86731 -6.48465
LeftLeg  16.3852 -0.447321 -4.47834
LeftFoot  -17.3061 0.0594084 -0.846221
LeftToes  -1.95724e-009 9.62483e-011 3.51777e-011
54
root  -10.2382 38.6678 11.511 -85.1164 -82.0873 90.7688
RightUpLeg  -30.3563 -2.00743 -3.40197
RightLeg  8.7819 -1.04465 -0.427737
RightFoot  -4.23948 -0.558312 8.53373
RightToes  4.01633e-009 0 -3.6325e-017
Spine  -7.89339 -0.407617 -14.1578
Spine1  15.7894 -0.155555 4.27587
HEad  10.3833 -5.46084 0.325268
LeftShoulder1  -0.0879822 3.75191 -29.3066
LeftArm  -2.3126 -0.493635 -47.5836
LeftForeArm  21.7263 -15.9523 -5.67422
LeftHand  -0.00280572 2.71952 -0.624742
RightShoulder  -0.631527 -5.40455 26.5169
RightArm  13.7209 -1.51371 51.1836
RightForeArm  11.939 14.5876 5.42833
RightHand  -0.182877 -0.100127 -4.02074
LeftUpLeg  -6.55202 7.01374 -7.31138
LeftLeg  16.3505 0.909727 -4.74595
LeftFoot  -18.431 0.120427 0.150986
LeftToes  -1.95724e-009 9.62483e-011 3.51777e-011
55
root  -11.3451 38.4214 11.6089 -91.6034 -81.0712 98.2198
RightUpLeg  -30.4856 -1.72869 -2.79848
RightLeg  0.29366 -5.69442 -0.798349
RightFoot  -3.82203 -0.529024 7.63673
RightToes  4.01633e-009 0 -3.6325e-017
Spine  -9.5633 -0.365252 -15.4179
Spine1  15.9796 0.0470515 5.21045
HEad  10.8452 -5.72261 0.0890306
LeftShoulder1  -0.115563 3.82624 -29.714
LeftArm  -2.47392 -0.761521 -47.1355
LeftForeArm  22.1741 -15.1194 -6.00456
LeftHand  0.00712746 3.47463 -1.63874
RightShoulder  -0.639003 -5.43272 26.4196
RightArm  14.0404 -1.47721 50.5728
RightForeArm  11.5225 14.018 5.6818
RightHand  -0.260197 0.239323 -5.4316
LeftUpLeg  -5.8258 6.86248 -8.49173
LeftLeg  16.5775 2.40069 -4.6324
LeftFoot  -19.5266 0.241598 1.73764
LeftToes  -1.95724e-009 9.62483e-011 3.51777e-011
56
root  -12.5995 38.1291 11.7457 -94.4311 -80.4454 101.356
RightUpLeg  -30.7395 -1.16998 -2.5466
RightLeg  -3.50693 -9.51701 -0.655161
RightFoot  -4.60416 -0.477823 7.46263
RightToes  4.01633e-009 0 -3.6325e-017
Spine  -11.1366 -0.528482 -15.6155
Spine1  16.7794 0.0727191 5.35643
HEad  10.8697 -5.62605 -0.0538596
LeftShoulder1  -0.117811 3.83255 -29.68
LeftArm  -3.68299 -0.854515 -47.1991
LeftForeArm  23.5274 -13.5126 -6.45171
LeftHand  0.00494544 2.81964 -0.912364
RightShoulder  -0.60771 -5.33839 26.3829
RightArm  13.8132 -1.52089 50.0655
RightForeArm  12.2149 13.3204 5.84848
RightHand  -0.241172 0.221111 -5.04376
LeftUpLeg  -4.36516 6.97503 -9.31191
LeftLeg  17.3225 2.91289 -4.32202
LeftFoot  -21.3296 0.338733 2.41757
LeftToes  -1.95724e-009 9.62483e-011 3.51777e-011
57
root  -13.8894 37.9002 11.9375 -99.0152 -80.7514 105.797
RightUpLeg  -31.1793 -0.585311 -1.80494
RightLeg  -2.52101 -12.35 -0.39477
RightFoot  -3.47382 -0.312237 4.61308
RightToes  4.01633e-009 0 -3.6325e-017
Spine  -11.4516 -0.294854 -13.7109
Spine1  17.0585 0.272054 4.56717
HEad  10.9282 -5.79286 -0.224517
LeftShoulder1  -0.101018 3.78705 -29.4528
LeftArm  -4.32513 -0.324772 -47.2702
LeftForeArm  24.8315 -12.3339 -6.77182
LeftHand  0.0058169 2.92039 -1.22401
RightShoulder  -0.69139 -5.56102 26.9416
RightArm  14.1411 -1.44084 48.8697
RightForeArm  11.9923 12.669 6.10888
RightHand  -0.255574 0.524024 -5.09499
LeftUpLeg  -2.17284 7.74582 -9.08959
LeftLeg  17.7722 2.83486 -4.00896
LeftFoot  -23.1575 0.428986 2.79562
LeftToes  -1.95724e-009 9.62483e-011 3.51777e-011
58
root  -15.2438 37.8764 12.2332 -106.245 -82.6961 112.581
RightUpLeg  -31.4264 -0.446294 0.182024
RightLeg  1.52845 -14.2115 0.097183
RightFoot  0.751417 0.250067 -2.33326
RightToes  4.01633e-009 0 -3.6325e-017
Spine  -11.7196 0.00476556 -8.89668
Spine1  18.3071 0.0535841 3.38503
HEad  11.0476 -5.38988 -0.853649
LeftShoulder1  -0.158644 3.9442 -29.8939
LeftArm  -5.4016 0.508885 -47.0786
LeftForeArm  26.7094 -11.2097 -6.86855
LeftHand  -0.00421176 4.40939 -2.38674
RightShoulder  -0.679815 -5.53631 26.7685
RightArm  13.4575 -1.61245 48.3342
RightForeArm  12.6145 11.9787 6.15752
RightHand  -0.25875 0.327782 -5.31928
LeftUpLeg  1.11888 8.98409 -7.14225
LeftLeg  16.8491 1.77705 -3.59792
LeftFoot  -23.9696 0.489302 3.12461
LeftToes  -1.95724e-009 9.62483e-011 3.51777e-011
59
root  -16.7145 37.8333 12.4637 -117.024 -85.0139 123.275
RightUpLeg  -32.3668 -1.37939 3.04234
RightLeg  7.11538 -12.6295 -0.637605
RightFoot  3.6025 0.672893 -5.01223
RightToes  4.01633e-009 0 -3.6325e-017
Spine  -12.0898 0.114367 -3.93747
Spine1  18.9527 -0.332827 2.4291
HEad  10.9327 -5.19128 -1.24492
LeftShoulder1  -0.133198 3.87278 -29.8219
LeftArm  -6.49688 2.19506 -47.396
LeftForeArm  28.1846 -10.1114 -6.86906
LeftHand  0.00553747 3.81331 -2.09907
RightShoulder  -0.696816 -5.57453 26.9806
RightArm  12.2641 -2.16958 47.3292
RightForeArm  13.0886 11.3867 5.98066
RightHand  -0.231084 -0.253374 -5.23042
LeftUpLeg  3.62989 11.4011 -4.29417
LeftLeg  17.2833 -0.955683 -3.27626
LeftFoot  -24.4328 0.382779 2.07043
LeftToes  -1.95724e-009 9.62483e-011 3.51777e-011
60
root  -18.2188 37.6926 12.5289 -145.471 -85.4915 151.817
RightUpLeg  -33.6055 -3.08383 6.83505
RightLeg  13.5484 -8.30354 -2.18805
RightFoot  3.382 0.49369 -3.65296
RightToes  4.01633e-009 0 -3.6325e-017
Spine  -11.8573 0.680309 -0.674138
Spine1  18.4018 -0.105433 2.36988
HEad  11.0316 -5.0403 -2.01576
LeftShoulder1  -0.230867 4.13081 -30.723
LeftArm  -6.93669 3.64181 -46.9716
LeftForeArm  28.8863 -9.14676 -6.95185
LeftHand  0.0119112 3.86883 -2.69806
RightShoulder  -0.729803 -5.65868 27.2185
RightArm  10.7057 -2.49157 46.1794
RightForeArm  13.3686 10.5329 5.69745
RightHand  -0.233032 0.0694069 -4.98823
LeftUpLeg  4.93854 16.5505 -1.09847
LeftLeg  20.5906 -5.37234 -3.59751
LeftFoot  -24.6033 0.190939 0.374939
LeftToes  -1.95724e-009 9.62483e-011 3.51777e-011
61
root  -19.617 37.7254 12.6126 -166.68 -84.089 173.112
RightUpLeg  -33.7583 -2.22906 8.33856
RightLeg  18.167 -6.56738 -2.65782
RightFoot  1.90656 0.65592 -5.52559
RightToes  4.01633e-009 0 -3.6325e-017
Spine  -11.566 1.45935 2.25421
Spine1  18.5688 0.410826 2.03703
HEad  11.2816 -4.27171 -2.65115
LeftShoulder1  -0.218199 4.10005 -30.4679
LeftArm  -7.37334 5.87275 -47.2952
LeftForeArm  29.4388 -8.8102 -6.85728
LeftHand  0.026201 3.30043 -2.55391
RightShoulder  -0.720455 -5.61279 27.5039
RightArm  9.32247 -2.60697 45.6118
RightForeArm  13.0256 9.42708 5.4328
RightHand  -0.234086 0.369616 -4.79023
LeftUpLeg  5.27896 19.7646 0.631077
LeftLeg  24.7624 -8.40676 -3.72715
LeftFoot  -22.4288 -0.240896 -3.92002
LeftToes  -1.95724e-009 9.62483e-011 3.51777e-011
